<svg width="24" height="24" viewBox="0 0 24 24" fill="none" xmlns="http://www.w3.org/2000/svg">
<g id="pepicons-print:persons-circle" clip-path="url(#clip0_4_15)">
<g id="Group">
<path id="Vector" opacity="0.2" fill-rule="evenodd" clip-rule="evenodd" d="M12.4616 24C18.8345 24 24 18.8345 24 12.4616C24 6.08863 18.8345 0.923096 12.4616 0.923096C6.08863 0.923096 0.923096 6.08863 0.923096 12.4616C0.923096 18.8345 6.08863 24 12.4616 24ZM12.4616 22.1539C17.8145 22.1539 22.1539 17.8145 22.1539 12.4616C22.1539 7.10863 17.8145 2.76925 12.4616 2.76925C7.10863 2.76925 2.76925 7.10863 2.76925 12.4616C2.76925 17.8145 7.10863 22.1539 12.4616 22.1539Z" fill="black"/>
<g id="Group_2" opacity="0.2">
<path id="Vector_2" fill-rule="evenodd" clip-rule="evenodd" d="M8.42125 12.743C7.92047 13.4942 7.65324 14.3768 7.65325 15.2796V15.923C7.65325 16.1678 7.556 16.4026 7.38289 16.5757C7.20978 16.7489 6.97499 16.8461 6.73018 16.8461C6.48536 16.8461 6.25057 16.7489 6.07746 16.5757C5.90435 16.4026 5.8071 16.1678 5.8071 15.923V15.2796C5.8071 14.0123 6.18187 12.7735 6.88525 11.7184L8.42125 12.743ZM10.2397 11.7692C9.50864 11.7692 8.82648 12.1347 8.42125 12.743L6.88525 11.7184C7.25348 11.1662 7.7523 10.7135 8.33746 10.4003C8.92261 10.0871 9.57602 9.92317 10.2397 9.92303H10.4225C10.6673 9.92303 10.9021 10.0203 11.0752 10.1934C11.2483 10.3665 11.3456 10.6013 11.3456 10.8461C11.3456 11.0909 11.2483 11.3257 11.0752 11.4988C10.9021 11.6719 10.6673 11.7692 10.4225 11.7692H10.2397ZM12.2816 12.743C12.7819 13.4935 13.0496 14.3769 13.0496 15.2796V15.923C13.0496 16.1678 13.1468 16.4026 13.3199 16.5757C13.493 16.7489 13.7278 16.8461 13.9726 16.8461C14.2175 16.8461 14.4522 16.7489 14.6254 16.5757C14.7985 16.4026 14.8957 16.1678 14.8957 15.923V15.2796C14.8957 14.0122 14.5206 12.773 13.8176 11.7184L12.2816 12.743Z" fill="black"/>
<path id="Vector_3" fill-rule="evenodd" clip-rule="evenodd" d="M10.4622 11.7692C11.1932 11.7692 11.8754 12.1347 12.2806 12.743L13.8175 11.7184C13.4493 11.1661 12.9503 10.7132 12.365 10.4C11.7797 10.0868 11.126 9.92294 10.4622 9.92303H10.2803C10.0355 9.92303 9.80071 10.0203 9.6276 10.1934C9.45449 10.3665 9.35724 10.6013 9.35724 10.8461C9.35724 11.0909 9.45449 11.3257 9.6276 11.4988C9.80071 11.6719 10.0355 11.7692 10.2803 11.7692H10.4622ZM6.35724 16.3846C6.35724 16.2622 6.40587 16.1448 6.49242 16.0582C6.57898 15.9717 6.69637 15.923 6.81878 15.923H13.2803C13.4027 15.923 13.5201 15.9717 13.6067 16.0582C13.6932 16.1448 13.7419 16.2622 13.7419 16.3846C13.7419 16.507 13.6932 16.6244 13.6067 16.7109C13.5201 16.7975 13.4027 16.8461 13.2803 16.8461H6.81878C6.69637 16.8461 6.57898 16.7975 6.49242 16.7109C6.40587 16.6244 6.35724 16.507 6.35724 16.3846Z" fill="black"/>
<path id="Vector_4" d="M13.2803 8.0769C13.2803 8.87255 12.9643 9.63562 12.4017 10.1982C11.839 10.7608 11.076 11.0769 10.2803 11.0769C9.48468 11.0769 8.72162 10.7608 8.15901 10.1982C7.59641 9.63562 7.28033 8.87255 7.28033 8.0769C7.28033 7.28125 7.59641 6.51819 8.15901 5.95558C8.72162 5.39297 9.48468 5.0769 10.2803 5.0769C11.076 5.0769 11.839 5.39297 12.4017 5.95558C12.9643 6.51819 13.2803 7.28125 13.2803 8.0769Z" fill="black"/>
<path id="Vector_5" fill-rule="evenodd" clip-rule="evenodd" d="M10.2803 9.23075C10.5864 9.23075 10.8798 9.10918 11.0962 8.8928C11.3126 8.67641 11.4342 8.38292 11.4342 8.0769C11.4342 7.77089 11.3126 7.4774 11.0962 7.26101C10.8798 7.04462 10.5864 6.92306 10.2803 6.92306C9.97432 6.92306 9.68083 7.04462 9.46444 7.26101C9.24805 7.4774 9.12649 7.77089 9.12649 8.0769C9.12649 8.38292 9.24805 8.67641 9.46444 8.8928C9.68083 9.10918 9.97432 9.23075 10.2803 9.23075ZM10.2803 11.0769C11.076 11.0769 11.839 10.7608 12.4017 10.1982C12.9643 9.63562 13.2803 8.87255 13.2803 8.0769C13.2803 7.28125 12.9643 6.51819 12.4017 5.95558C11.839 5.39297 11.076 5.0769 10.2803 5.0769C9.48468 5.0769 8.72162 5.39297 8.15901 5.95558C7.59641 6.51819 7.28033 7.28125 7.28033 8.0769C7.28033 8.87255 7.59641 9.63562 8.15901 10.1982C8.72162 10.7608 9.48468 11.0769 10.2803 11.0769Z" fill="black"/>
<path id="Vector_6" d="M7.28033 11.7692H13.2803V16.3846H7.28033V11.7692Z" fill="black"/>
<path id="Vector_7" fill-rule="evenodd" clip-rule="evenodd" d="M15.1136 15.743C14.6128 16.4942 14.3456 17.3768 14.3456 18.2796V18.923C14.3456 19.1678 14.2483 19.4026 14.0752 19.5757C13.9021 19.7489 13.6673 19.8461 13.4225 19.8461C13.1777 19.8461 12.9429 19.7489 12.7698 19.5757C12.5967 19.4026 12.4994 19.1678 12.4994 18.923V18.2796C12.4994 17.0123 12.8742 15.7735 13.5776 14.7184L15.1136 15.743ZM16.932 14.7692C16.2019 14.7692 15.5188 15.1347 15.1136 15.743L13.5776 14.7184C13.9458 14.1662 14.4446 13.7135 15.0298 13.4003C15.6149 13.0871 16.2683 12.9232 16.932 12.923H17.1148C17.3596 12.923 17.5944 13.0203 17.7675 13.1934C17.9406 13.3665 18.0379 13.6013 18.0379 13.8461C18.0379 14.0909 17.9406 14.3257 17.7675 14.4988C17.5944 14.6719 17.3596 14.7692 17.1148 14.7692H16.932ZM18.9739 15.743C19.4742 16.4935 19.7419 17.3769 19.7419 18.2796V18.923C19.7419 19.1678 19.8391 19.4026 20.0122 19.5757C20.1854 19.7489 20.4201 19.8461 20.665 19.8461C20.9098 19.8461 21.1446 19.7489 21.3177 19.5757C21.4908 19.4026 21.588 19.1678 21.588 18.923V18.2796C21.5881 17.0122 21.2129 15.773 20.5099 14.7184L18.9739 15.743Z" fill="black"/>
<path id="Vector_8" fill-rule="evenodd" clip-rule="evenodd" d="M17.1545 14.7692C17.8856 14.7692 18.5686 15.1347 18.9729 15.743L20.5099 14.7184C20.1415 14.1661 19.6426 13.7133 19.0573 13.4001C18.4719 13.0869 17.8183 12.923 17.1545 12.923H16.9726C16.7278 12.923 16.493 13.0203 16.3199 13.1934C16.1468 13.3665 16.0496 13.6013 16.0496 13.8461C16.0496 14.0909 16.1468 14.3257 16.3199 14.4988C16.493 14.6719 16.7278 14.7692 16.9726 14.7692H17.1545ZM12.8188 19.3846C12.8188 19.2622 12.8674 19.1448 12.954 19.0582C13.0405 18.9717 13.1579 18.923 13.2803 18.923H20.6649C20.7873 18.923 20.9047 18.9717 20.9913 19.0582C21.0779 19.1448 21.1265 19.2622 21.1265 19.3846C21.1265 19.507 21.0779 19.6244 20.9913 19.7109C20.9047 19.7975 20.7873 19.8461 20.6649 19.8461H13.2803C13.1579 19.8461 13.0405 19.7975 12.954 19.7109C12.8674 19.6244 12.8188 19.507 12.8188 19.3846Z" fill="black"/>
<path id="Vector_9" d="M19.9726 11.0769C19.9726 11.8726 19.6566 12.6356 19.0939 13.1982C18.5313 13.7608 17.7683 14.0769 16.9726 14.0769C16.177 14.0769 15.4139 13.7608 14.8513 13.1982C14.2887 12.6356 13.9726 11.8726 13.9726 11.0769C13.9726 10.2813 14.2887 9.51819 14.8513 8.95558C15.4139 8.39298 16.177 8.0769 16.9726 8.0769C17.7683 8.0769 18.5313 8.39298 19.0939 8.95558C19.6566 9.51819 19.9726 10.2813 19.9726 11.0769Z" fill="black"/>
<path id="Vector_10" fill-rule="evenodd" clip-rule="evenodd" d="M16.9726 12.2308C17.2786 12.2308 17.5721 12.1092 17.7885 11.8928C18.0049 11.6764 18.1265 11.3829 18.1265 11.0769C18.1265 10.7709 18.0049 10.4774 17.7885 10.261C17.5721 10.0446 17.2786 9.92306 16.9726 9.92306C16.6666 9.92306 16.3731 10.0446 16.1567 10.261C15.9403 10.4774 15.8188 10.7709 15.8188 11.0769C15.8188 11.3829 15.9403 11.6764 16.1567 11.8928C16.3731 12.1092 16.6666 12.2308 16.9726 12.2308ZM16.9726 14.0769C17.7683 14.0769 18.5313 13.7608 19.0939 13.1982C19.6566 12.6356 19.9726 11.8726 19.9726 11.0769C19.9726 10.2813 19.6566 9.51819 19.0939 8.95558C18.5313 8.39298 17.7683 8.0769 16.9726 8.0769C16.177 8.0769 15.4139 8.39298 14.8513 8.95558C14.2887 9.51819 13.9726 10.2813 13.9726 11.0769C13.9726 11.8726 14.2887 12.6356 14.8513 13.1982C15.4139 13.7608 16.177 14.0769 16.9726 14.0769Z" fill="black"/>
<path id="Vector_11" d="M13.7419 14.5385H19.7419V19.1538H13.7419V14.5385Z" fill="black"/>
</g>
<path id="Vector_12" fill-rule="evenodd" clip-rule="evenodd" d="M5.87078 11.9788C5.31518 12.8126 5.01874 13.7922 5.01878 14.7942V15.6923C5.01878 15.8147 4.97015 15.9321 4.8836 16.0187C4.79704 16.1053 4.67965 16.1539 4.55724 16.1539C4.43483 16.1539 4.31744 16.1053 4.23088 16.0187C4.14433 15.9321 4.0957 15.8147 4.0957 15.6923V14.7951C4.09571 13.6104 4.44645 12.4522 5.1037 11.4665L5.2034 11.317C5.27133 11.2151 5.37694 11.1444 5.49699 11.1205C5.61705 11.0965 5.74171 11.1212 5.84355 11.1891C5.94539 11.257 6.01608 11.3627 6.04005 11.4827C6.06403 11.6028 6.03933 11.7274 5.9714 11.8293L5.87078 11.9788Z" fill="black"/>
<path id="Vector_13" fill-rule="evenodd" clip-rule="evenodd" d="M8.47386 10.4908C7.46771 10.4908 6.52894 10.9929 5.9714 11.8292L5.2034 11.3178C5.56226 10.7796 6.04843 10.3382 6.61878 10.0329C7.18913 9.72761 7.82602 9.56781 8.47294 9.56769H8.67602C8.79842 9.56769 8.91582 9.61631 9.00237 9.70287C9.08893 9.78943 9.13755 9.90682 9.13755 10.0292C9.13755 10.1516 9.08893 10.269 9.00237 10.3556C8.91582 10.4421 8.79842 10.4908 8.67602 10.4908H8.47294H8.47386ZM11.3151 11.9677C11.7489 12.6194 11.9806 13.3837 11.9806 14.1665H12.9037C12.9039 13.2018 12.6184 12.2588 12.0831 11.4563L11.9908 11.3178C11.9581 11.2655 11.9152 11.2202 11.8647 11.1847C11.8142 11.1492 11.757 11.1242 11.6967 11.1111C11.6363 11.0981 11.574 11.0973 11.5133 11.1088C11.4526 11.1203 11.3949 11.1439 11.3435 11.1781C11.2921 11.2123 11.2481 11.2565 11.2141 11.3081C11.1801 11.3596 11.1567 11.4174 11.1455 11.4781C11.1342 11.5389 11.1353 11.6012 11.1485 11.6615C11.1618 11.7218 11.1871 11.7789 11.2228 11.8292L11.3151 11.9677Z" fill="black"/>
<path id="Vector_14" fill-rule="evenodd" clip-rule="evenodd" d="M8.72123 10.4908C9.72646 10.4908 10.6652 10.9929 11.2228 11.8292L11.9908 11.3178C11.6319 10.7796 11.1457 10.3382 10.5754 10.0329C10.005 9.72761 9.36815 9.56781 8.72123 9.56769H8.51815C8.39574 9.56769 8.27835 9.61631 8.19179 9.70287C8.10524 9.78943 8.05661 9.90682 8.05661 10.0292C8.05661 10.1516 8.10524 10.269 8.19179 10.3556C8.27835 10.4421 8.39574 10.4908 8.51815 10.4908H8.72123Z" fill="black"/>
<path id="Vector_15" fill-rule="evenodd" clip-rule="evenodd" d="M8.53848 9.46157C9.08932 9.46157 9.61759 9.24275 10.0071 8.85325C10.3966 8.46375 10.6154 7.93548 10.6154 7.38464C10.6154 6.83381 10.3966 6.30554 10.0071 5.91604C9.61759 5.52654 9.08932 5.30772 8.53848 5.30772C7.98765 5.30772 7.45938 5.52654 7.06988 5.91604C6.68038 6.30554 6.46156 6.83381 6.46156 7.38464C6.46156 7.93548 6.68038 8.46375 7.06988 8.85325C7.45938 9.24275 7.98765 9.46157 8.53848 9.46157ZM8.53848 10.3846C9.33413 10.3846 10.0972 10.0686 10.6598 9.50596C11.2224 8.94335 11.5385 8.18029 11.5385 7.38464C11.5385 6.58899 11.2224 5.82593 10.6598 5.26332C10.0972 4.70071 9.33413 4.38464 8.53848 4.38464C7.74283 4.38464 6.97977 4.70071 6.41716 5.26332C5.85455 5.82593 5.53848 6.58899 5.53848 7.38464C5.53848 8.18029 5.85455 8.94335 6.41716 9.50596C6.97977 10.0686 7.74283 10.3846 8.53848 10.3846ZM12.4689 14.941C11.9132 15.775 11.6167 16.755 11.6169 17.7573V18.7117C11.6169 18.8341 11.5683 18.9515 11.4818 19.0381C11.3952 19.1246 11.2778 19.1733 11.1554 19.1733C11.033 19.1733 10.9156 19.1246 10.829 19.0381C10.7425 18.9515 10.6939 18.8341 10.6939 18.7117V17.7573C10.6938 16.5729 11.0442 15.4151 11.7009 14.4296L11.8237 14.245C11.8574 14.1945 11.9007 14.1512 11.9511 14.1175C12.0016 14.0838 12.0582 14.0604 12.1176 14.0486C12.1771 14.0368 12.2384 14.0368 12.2978 14.0486C12.3573 14.0604 12.4139 14.0839 12.4643 14.1176C12.5148 14.1513 12.5581 14.1946 12.5917 14.245C12.6254 14.2954 12.6489 14.352 12.6607 14.4115C12.6725 14.471 12.6725 14.5322 12.6607 14.5917C12.6488 14.6512 12.6254 14.7078 12.5917 14.7582L12.4689 14.941Z" fill="black"/>
<path id="Vector_16" fill-rule="evenodd" clip-rule="evenodd" d="M15.1569 13.3846C14.6492 13.3846 14.1492 13.5099 13.7016 13.7495C13.2539 13.9891 12.8723 14.3356 12.5908 14.7582L11.8237 14.2459C12.1895 13.697 12.6851 13.247 13.2666 12.9358C13.8481 12.6245 14.4974 12.4616 15.1569 12.4615H15.3637C15.4861 12.4615 15.6035 12.5102 15.6901 12.5967C15.7766 12.6833 15.8252 12.8007 15.8252 12.9231C15.8252 13.0455 15.7766 13.1629 15.6901 13.2494C15.6035 13.336 15.4861 13.3846 15.3637 13.3846H15.1569ZM18.0988 14.9409C18.6549 15.7749 18.9517 16.7549 18.9517 17.7572V18.7117C18.9517 18.8341 19.0003 18.9515 19.0869 19.0381C19.1734 19.1246 19.2908 19.1732 19.4132 19.1732C19.5356 19.1732 19.653 19.1246 19.7396 19.0381C19.8262 18.9515 19.8748 18.8341 19.8748 18.7117V17.7572C19.8746 16.5728 19.5239 15.415 18.8668 14.4295L18.744 14.2449C18.7103 14.1945 18.667 14.1512 18.6166 14.1175C18.5661 14.0838 18.5096 14.0604 18.4501 14.0486C18.3906 14.0367 18.3294 14.0367 18.2699 14.0486C18.2104 14.0604 18.1538 14.0838 18.1034 14.1175C18.053 14.1512 18.0097 14.1945 17.976 14.245C17.9423 14.2954 17.9189 14.352 17.907 14.4115C17.8952 14.471 17.8952 14.5322 17.907 14.5917C17.9189 14.6512 17.9423 14.7077 17.976 14.7582L18.0988 14.9409Z" fill="black"/>
<path id="Vector_17" fill-rule="evenodd" clip-rule="evenodd" d="M15.4108 13.3846C15.9185 13.3846 16.4185 13.5099 16.8661 13.7495C17.3138 13.9891 17.6954 14.3356 17.9769 14.7582L18.7449 14.2459C18.3791 13.6969 17.8833 13.2468 17.3016 12.9355C16.72 12.6243 16.0705 12.4615 15.4108 12.4615H15.2031C15.0807 12.4615 14.9633 12.5102 14.8767 12.5967C14.7902 12.6833 14.7415 12.8007 14.7415 12.9231C14.7415 13.0455 14.7902 13.1629 14.8767 13.2494C14.9633 13.336 15.0807 13.3846 15.2031 13.3846H15.4108Z" fill="black"/>
<path id="Vector_18" fill-rule="evenodd" clip-rule="evenodd" d="M15.2308 12.4616C15.7816 12.4616 16.3099 12.2427 16.6994 11.8532C17.0889 11.4638 17.3077 10.9355 17.3077 10.3846C17.3077 9.83381 17.0889 9.30554 16.6994 8.91604C16.3099 8.52654 15.7816 8.30772 15.2308 8.30772C14.6799 8.30772 14.1517 8.52654 13.7622 8.91604C13.3727 9.30554 13.1539 9.83381 13.1539 10.3846C13.1539 10.9355 13.3727 11.4638 13.7622 11.8532C14.1517 12.2427 14.6799 12.4616 15.2308 12.4616ZM15.2308 13.3846C16.0264 13.3846 16.7895 13.0686 17.3521 12.506C17.9147 11.9434 18.2308 11.1803 18.2308 10.3846C18.2308 9.58899 17.9147 8.82593 17.3521 8.26332C16.7895 7.70071 16.0264 7.38464 15.2308 7.38464C14.4351 7.38464 13.6721 7.70071 13.1095 8.26332C12.5468 8.82593 12.2308 9.58899 12.2308 10.3846C12.2308 11.1803 12.5468 11.9434 13.1095 12.506C13.6721 13.0686 14.4351 13.3846 15.2308 13.3846Z" fill="black"/>
<path id="Vector_19" fill-rule="evenodd" clip-rule="evenodd" d="M12 22.6154C17.8625 22.6154 22.6154 17.8625 22.6154 12C22.6154 6.13755 17.8625 1.38462 12 1.38462C6.13755 1.38462 1.38462 6.13755 1.38462 12C1.38462 17.8625 6.13755 22.6154 12 22.6154ZM12 23.5385C18.3729 23.5385 23.5385 18.3729 23.5385 12C23.5385 5.62709 18.3729 0.461548 12 0.461548C5.62709 0.461548 0.461548 5.62709 0.461548 12C0.461548 18.3729 5.62709 23.5385 12 23.5385Z" fill="black"/>
</g>
</g>
<defs>
<clipPath id="clip0_4_15">
<rect width="24" height="24" fill="white"/>
</clipPath>
</defs>
</svg>
